<?xml version="1.0" standalone="no"?>
<!DOCTYPE svg PUBLIC "-//W3C//DTD SVG 1.1//EN" "http://www.w3.org/Graphics/SVG/1.1/DTD/svg11.dtd" >
<svg>
<metadata>
Created by FontForge 20090622 at Fri Sep 11 12:15:55 2015
 By deploy user
Copyright (c) Laurenz Brunner, 2004. All rights reserved.
</metadata>
<defs>
<font id="Akkurat-Bold" horiz-adv-x="570" >
  <font-face 
    font-family="Akkurat"
    font-weight="700"
    font-stretch="normal"
    units-per-em="1000"
    panose-1="2 0 5 3 3 0 0 2 0 4"
    ascent="800"
    descent="-200"
    x-height="520"
    cap-height="709"
    bbox="-30 -293 1147 983"
    underline-thickness="50"
    underline-position="-50"
    unicode-range="U+0020-U+FB02"
  />
<missing-glyph horiz-adv-x="588" 
d="M88 698v-698h412v698h-412zM425 74h-262v549h262v-549z" />
    <glyph glyph-name="fi" unicode="fi" horiz-adv-x="659" 
d="M583 590h-134v131h134v-131zM580 0h-127v520h127v-520zM379 623q-42 8 -82 8q-33 0 -50.5 -17t-17.5 -46v-48h139v-103h-139v-417h-125v417h-88v103h88v50q0 73 47 118.5t130 45.5q44 0 98 -11v-100z" />
    <glyph glyph-name="fl" unicode="fl" horiz-adv-x="673" 
d="M643 1q-35 -7 -55 -7q-67 0 -104.5 34t-37.5 106v589h126v-568q0 -25 10 -37.5t40 -12.5q6 0 12 0.5t9 0.5v-105zM379 623q-42 8 -82 8q-33 0 -50.5 -17t-17.5 -46v-48h139v-103h-139v-417h-125v417h-88v103h88v50q0 73 47 118.5t130 45.5q44 0 98 -11v-100z" />
    <glyph glyph-name=".notdef" horiz-adv-x="588" 
d="M88 698v-698h412v698h-412zM425 74h-262v549h262v-549z" />
    <glyph glyph-name=".null" horiz-adv-x="0" 
 />
    <glyph glyph-name="nonmarkingreturn" horiz-adv-x="333" 
 />
    <glyph glyph-name="space" unicode=" " horiz-adv-x="209" 
 />
    <glyph glyph-name="exclam" unicode="!" horiz-adv-x="332" 
d="M249 487l-28 -275h-75l-28 275v222h131v-222zM250 0h-132v133h132v-133z" />
    <glyph glyph-name="quotedbl" unicode="&#x22;" horiz-adv-x="525" 
d="M443 563l-25 -171h-83l-25 171v147h133v-147zM215 563l-25 -171h-83l-25 171v147h133v-147z" />
    <glyph glyph-name="numbersign" unicode="#" horiz-adv-x="758" 
d="M700 413h-136l-17 -131h121v-98h-136l-26 -184h-105l26 184h-138l-26 -184h-105l26 184h-121v98h136l18 131h-122v99h136l27 183h104l-26 -183h138l27 183h104l-26 -183h121v-99zM460 413h-138l-18 -131h138z" />
    <glyph glyph-name="dollar" unicode="$" 
d="M553 217q0 -81 -57 -140q-60 -62 -163 -73v-91h-73v90q-101 8 -170 71q-70 63 -71 154h123q1 -50 37 -84q31 -30 81 -35v198q-35 4 -49 7q-81 13 -127.5 62.5t-46.5 125.5q0 73 61 132q63 63 162 72v93h73v-95q87 -11 143 -62q66 -61 69 -143h-123q-2 37 -31 68
q-20 21 -58 31v-183q6 -1 17 -2.5t17 -2.5q82 -13 134 -62.5t52 -130.5zM260 425v176q-47 -7 -74 -33q-27 -25 -27 -63q0 -63 71 -75q20 -4 30 -5zM432 212q0 66 -82 81l-17 3v-186q46 8 71 33q28 28 28 69z" />
    <glyph glyph-name="percent" unicode="%" horiz-adv-x="904" 
d="M854 182q0 -75 -31 -120q-50 -72 -141 -72t-141 72q-31 45 -31 120t31 120q50 72 141 72t141 -72q31 -45 31 -120zM743 670l-507 -690l-74 56l505 687zM389 527q0 -75 -31 -120q-50 -72 -141 -72t-141 72q-31 45 -31 120t31 120q50 72 141 72t141 -72q31 -45 31 -120z
M755 182q0 106 -73 106t-73 -106t73 -106t73 106zM290 527q0 106 -73 106t-73 -106t73 -106t73 106z" />
    <glyph glyph-name="ampersand" unicode="&#x26;" horiz-adv-x="742" 
d="M704 -1h-152l-50 56q-84 -74 -201 -74q-98 0 -166.5 59t-68.5 156q0 118 126 195q-40 43 -58 76t-18 78q0 82 55.5 130.5t138.5 48.5q81 0 138.5 -47.5t57.5 -127.5q0 -64 -34.5 -108t-99.5 -82l123 -134q14 26 18 87q2 32 2 87h183v-99h-82q-5 -100 -43 -159zM389 544
q0 36 -22 56.5t-57 20.5q-33 0 -56 -19.5t-23 -54.5q0 -10 2 -19t6.5 -18l8 -15.5t12 -16l12 -13.5t14 -14.5l12.5 -12.5l34.5 19.5t26.5 19.5t23.5 30t6.5 37zM427 134l-162 179q-29 -17 -44 -28.5t-27.5 -33.5t-12.5 -50q0 -52 37 -81.5t90 -29.5q79 0 119 44z" />
    <glyph glyph-name="quotesingle" unicode="'" horiz-adv-x="277" 
d="M205 563l-25 -171h-83l-25 171v147h133v-147z" />
    <glyph glyph-name="parenleft" unicode="(" horiz-adv-x="328" 
d="M318 -115l-71 -53q-182 209 -182 485t182 485l71 -53q-80 -107 -114.5 -203t-34.5 -229t34.5 -229t114.5 -203z" />
    <glyph glyph-name="parenright" unicode=")" horiz-adv-x="328" 
d="M263 317q0 -276 -182 -485l-71 53q80 107 114.5 203t34.5 229t-34.5 229t-114.5 203l71 53q182 -209 182 -485z" />
    <glyph glyph-name="asterisk" unicode="*" horiz-adv-x="525" 
d="M485 506l-151 -40l100 -125l-87 -65l-84 139l-85 -140l-87 65l100 126l-151 40l33 106l145 -60l-10 161l108 -1l-11 -161l146 61z" />
    <glyph glyph-name="plus" unicode="+" horiz-adv-x="679" 
d="M624 255h-228v-250h-113v250h-228v107h228v234h113v-234h228v-107z" />
    <glyph glyph-name="comma" unicode="," horiz-adv-x="292" 
d="M222 12q0 -69 -24 -112.5t-87 -69.5l-35 58q41 19 55 44t14 68h-75v156h152v-144z" />
    <glyph glyph-name="hyphen" unicode="-" horiz-adv-x="463" 
d="M403 252h-343v112h343v-112z" />
    <glyph glyph-name="period" unicode="." horiz-adv-x="293" 
d="M222 0h-152v156h152v-156z" />
    <glyph glyph-name="slash" unicode="/" horiz-adv-x="389" 
d="M399 722l-307 -735h-92l307 735h92z" />
    <glyph glyph-name="zero" unicode="0" 
d="M530 348q0 -102 -17 -177t-66 -122q-64 -62 -162 -62t-162 62q-49 47 -66 122t-17 177t17 177t66 122q64 62 162 62t162 -62q49 -47 66 -122t17 -177zM403 348q0 107 -8 143q-21 102 -110 102q-25 0 -44.5 -7.5t-31.5 -21t-21 -31.5t-12.5 -38.5t-6.5 -42.5t-2.5 -43
t0.5 -41v-20q0 -107 8 -143q21 -102 110 -102q25 0 44.5 7.5t31.5 21t21 31.5t12.5 38.5t6.5 42.5t2.5 43t-0.5 41v20z" />
    <glyph glyph-name="one" unicode="1" 
d="M394 0h-125v547l-153 -111v136l171 123h107v-695z" />
    <glyph glyph-name="two" unicode="2" 
d="M506 0h-444v100l271 323q36 42 36 89q0 38 -23.5 62.5t-64.5 24.5q-43 0 -68 -28.5t-25 -71.5h-128q1 94 59 152t163 58q92 0 153 -53.5t61 -142.5q0 -78 -76 -170l-192 -230h278v-113z" />
    <glyph glyph-name="three" unicode="3" 
d="M516 199q0 -100 -67 -156t-170 -56q-98 0 -165.5 59t-70.5 155h125q4 -50 34.5 -77t77.5 -27q48 0 79 28t31 76q0 51 -35 78t-87 27h-52v109h52q107 0 107 93q0 38 -27 64.5t-68 26.5q-48 0 -77 -24t-30 -70h-126q1 95 67.5 149.5t165.5 54.5q96 0 159 -54.5t63 -143.5
q0 -49 -27 -91t-73 -58q52 -15 83 -61t31 -102z" />
    <glyph glyph-name="four" unicode="4" 
d="M550 140h-88v-140h-125v140h-310v118l255 437h136l-259 -442h178v163h125v-163h88v-113z" />
    <glyph glyph-name="five" unicode="5" 
d="M533 236q0 -113 -64 -181.5t-178 -68.5q-104 0 -170 59.5t-71 157.5h125q2 -51 34 -78.5t83 -27.5q59 0 86.5 37.5t27.5 98.5q0 58 -28 92t-86 34q-31 0 -59.5 -15t-44.5 -41h-123l15 392h422v-112h-314l-8 -159q48 45 138 45q102 0 158.5 -65t56.5 -168z" />
    <glyph glyph-name="six" unicode="6" 
d="M535 229q0 -106 -62.5 -174t-176.5 -68q-96 0 -157.5 60.5t-77.5 158.5q-11 62 -11 130q0 100 15 176t62 127q66 70 170 70q99 0 159 -57q59 -56 59 -128h-126q-3 32 -24 53q-24 25 -74 25q-39 0 -69 -28q-48 -44 -48 -159q21 26 58.5 38.5t73.5 12.5q110 0 169.5 -64.5
t59.5 -172.5zM408 234q0 57 -29.5 93.5t-84.5 36.5q-49 0 -78.5 -37t-29.5 -93q0 -60 28.5 -97.5t81.5 -37.5q55 0 83.5 36t28.5 99z" />
    <glyph glyph-name="seven" unicode="7" 
d="M526 595l-271 -595h-135l272 583h-345v112h479v-100z" />
    <glyph glyph-name="eight" unicode="8" 
d="M525 195q0 -97 -70.5 -153t-169.5 -56t-169.5 56t-70.5 153q0 53 26.5 98t74.5 68q-38 21 -62.5 63.5t-24.5 86.5q0 94 65 146t161 52t161 -52t65 -146q0 -44 -24.5 -86.5t-62.5 -63.5q48 -23 74.5 -68t26.5 -98zM385 509q0 40 -26 65t-74 25t-74 -25t-26 -65t26 -66.5
t74 -26.5t74 26.5t26 66.5zM399 203q0 45 -30 74t-84 29t-84 -29t-30 -74q0 -48 31.5 -77t82.5 -29t82.5 29t31.5 77z" />
    <glyph glyph-name="nine" unicode="9" 
d="M522 360q0 -100 -15 -176t-62 -127q-67 -70 -170 -70q-99 0 -159 57q-59 56 -59 128h126q3 -32 24 -53q24 -25 74 -25q39 0 69 28q48 44 48 159q-21 -26 -58.5 -38.5t-73.5 -12.5q-110 0 -169.5 64.5t-59.5 172.5q0 106 62.5 174t176.5 68q96 0 157.5 -60.5t77.5 -158.5
q11 -62 11 -130zM386 462q0 60 -28.5 97.5t-81.5 37.5q-55 0 -83.5 -36t-28.5 -99q0 -57 29.5 -93.5t84.5 -36.5q49 0 78.5 37t29.5 93z" />
    <glyph glyph-name="colon" unicode=":" horiz-adv-x="321" 
d="M245 369h-151v151h151v-151zM245 0h-151v151h151v-151z" />
    <glyph glyph-name="semicolon" unicode=";" horiz-adv-x="321" 
d="M245 369h-151v151h151v-151zM245 12q0 -70 -23.5 -112.5t-86.5 -68.5l-35 58q40 19 54.5 44t14.5 67h-75v151h151v-139z" />
    <glyph glyph-name="less" unicode="&#x3c;" horiz-adv-x="466" 
d="M421 575l-70 70l-321 -322l322 -323l69 68l-254 254z" />
    <glyph glyph-name="equal" unicode="=" horiz-adv-x="690" 
d="M600 328h-510v98h510v-98zM600 129h-510v99h510v-99z" />
    <glyph glyph-name="greater" unicode="&#x3e;" horiz-adv-x="466" 
d="M45 575l70 70l321 -322l-322 -323l-69 68l254 254z" />
    <glyph glyph-name="question" unicode="?" horiz-adv-x="522" 
d="M494 529q0 -92 -79 -159l-24.5 -20.5l-23.5 -19.5t-18.5 -18t-16 -22.5t-8.5 -26t-4 -33.5v-28h-124q0 73 5 97q7 31 22 56.5t28 38t38.5 33t35.5 29.5q39 35 39 72q0 35 -26 59.5t-71 24.5q-48 0 -77 -26t-29 -74h-129q0 101 68 157t172 56q97 0 159.5 -56t62.5 -140z
M327 0h-139v140h139v-140z" />
    <glyph glyph-name="at" unicode="@" horiz-adv-x="927" 
d="M874 384q0 -63 -21 -122t-71.5 -103.5t-121.5 -44.5q-76 0 -101 69q-38 -67 -118 -67t-121 56.5t-41 138.5q0 88 45.5 148t127.5 60q33 0 62.5 -17t38.5 -47l14 53h92l-18 -254q-3 -47 27 -47q27 0 51 26.5t35 59.5q13 40 13 89q0 118 -74.5 181t-198.5 63
q-145 0 -229.5 -85.5t-84.5 -225.5q0 -127 79 -210.5t207 -83.5q139 0 247 38v-96q-108 -40 -248 -40q-179 0 -287 112.5t-108 287.5q0 179 117.5 289t305.5 110q165 0 273 -88.5t108 -249.5zM546 331q0 99 -75 99q-41 0 -61.5 -35t-20.5 -84q0 -44 17.5 -73t53.5 -29
q45 0 65.5 34t20.5 88z" />
    <glyph glyph-name="A" unicode="A" horiz-adv-x="639" 
d="M639 0h-135l-46 136h-282l-46 -136h-130l249 709h141zM418 252l-101 299l-101 -299h202z" />
    <glyph glyph-name="B" unicode="B" horiz-adv-x="664" 
d="M626 206q0 -104 -72 -159q-63 -48 -189 -48h-282v710h282q104 0 164 -39q39 -25 60.5 -66.5t21.5 -87.5q0 -47 -22 -89t-65 -61q49 -23 75.5 -66t26.5 -94zM480 508q0 48 -30.5 69t-79.5 21h-159v-178h162q107 0 107 88zM495 209q0 103 -121 103h-163v-197h159
q52 0 88.5 22t36.5 72z" />
    <glyph glyph-name="C" unicode="C" horiz-adv-x="628" 
d="M600 226q-10 -96 -68 -155q-82 -84 -203 -84q-122 0 -201 79q-53 53 -70.5 120.5t-17.5 167.5t17.5 167.5t70.5 120.5q80 80 201 80q123 0 203 -82q58 -59 68 -154h-132q-4 41 -32 75q-35 44 -107 44q-65 0 -109 -47q-23 -24 -34.5 -64t-13 -67t-1.5 -73t1.5 -73t13 -67
t34.5 -64q44 -47 109 -47q71 0 107 45q28 34 32 78h132z" />
    <glyph glyph-name="D" unicode="D" horiz-adv-x="684" 
d="M641 355q0 -90 -16.5 -159t-66.5 -120q-73 -76 -199 -76h-276v709h276q126 0 199 -76q50 -51 66.5 -120t16.5 -158zM510 355q0 44 -2 71.5t-14 65.5t-35 61q-40 40 -100 40h-147v-477h147q60 0 100 40q23 23 35 61.5t14 66t2 71.5z" />
    <glyph glyph-name="E" unicode="E" horiz-adv-x="628" 
d="M588 0h-505v709h505v-117h-376v-165h331v-116h-331v-194h376v-117z" />
    <glyph glyph-name="F" unicode="F" horiz-adv-x="588" 
d="M573 592h-361v-190h322v-117h-322v-285h-129v709h490v-117z" />
    <glyph glyph-name="G" unicode="G" horiz-adv-x="684" 
d="M621 0h-83l-15 78q-18 -34 -67 -62t-111 -29q-134 -2 -211 79q-52 54 -72 123.5t-20 164.5q0 97 19 164t73 121q40 40 96.5 61.5t114.5 21.5q131 0 210 -81q60 -61 65 -143h-132q-2 30 -31 65q-37 43 -113 43q-71 0 -116 -48q-55 -57 -55 -204q0 -149 56 -207
q42 -45 115 -45q67 0 106 41q46 48 46 138h-169v107h294v-388z" />
    <glyph glyph-name="H" unicode="H" horiz-adv-x="715" 
d="M632 0h-129v309h-291v-309h-129v709h129v-277h291v277h129v-709z" />
    <glyph glyph-name="I" unicode="I" horiz-adv-x="297" 
d="M214 0h-131v709h131v-709z" />
    <glyph glyph-name="J" unicode="J" horiz-adv-x="491" 
d="M428 207q0 -102 -57 -161.5t-158 -59.5q-95 0 -151 58q-62 63 -62 178h125q0 -67 26 -95q24 -26 62 -26q42 0 64 25.5t22 70.5v512h129v-502z" />
    <glyph glyph-name="K" unicode="K" horiz-adv-x="678" 
d="M678 0h-152l-192 335l-122 -143v-192h-129v709h129v-327l283 327h157l-228 -268z" />
    <glyph glyph-name="L" unicode="L" horiz-adv-x="550" 
d="M541 0h-458v709h129v-587h329v-122z" />
    <glyph glyph-name="M" unicode="M" horiz-adv-x="878" 
d="M795 0h-125v506l-184 -496h-95l-183 502v-512h-125v709h174l186 -505l187 505h165v-709z" />
    <glyph glyph-name="N" unicode="N" horiz-adv-x="733" 
d="M650 0h-133l-307 487v-487h-127v709h137l303 -480v480h127v-709z" />
    <glyph glyph-name="O" unicode="O" horiz-adv-x="672" 
d="M630 354q0 -98 -18.5 -166t-71.5 -121q-80 -80 -204 -80t-204 80q-53 53 -71.5 121t-18.5 166q0 99 18.5 167t71.5 121q80 80 204 80t204 -80q53 -53 71.5 -121t18.5 -167zM499 354q0 151 -51 204q-44 47 -112 47t-112 -47q-51 -53 -51 -204q0 -43 2 -72t14 -68t35 -63
q44 -47 112 -47t112 47q23 24 35 63t14 68t2 72z" />
    <glyph glyph-name="P" unicode="P" horiz-adv-x="624" 
d="M611 482q0 -104 -65 -166t-185 -62h-150v-254h-128v709h278q120 0 185 -61.5t65 -165.5zM481 481q0 53 -31.5 84t-93.5 31h-145v-229h145q62 0 93.5 30.5t31.5 83.5z" />
    <glyph glyph-name="Q" unicode="Q" horiz-adv-x="672" 
d="M630 354q0 -98 -18 -165t-71 -121l62 -78l-77 -60l-66 82q-57 -25 -124 -25q-124 0 -204 80q-53 53 -71.5 121t-18.5 166q0 99 18.5 167t71.5 121q80 80 204 80t204 -80q53 -53 71.5 -121t18.5 -167zM499 354q0 151 -51 204q-44 47 -112 47t-112 -47q-51 -53 -51 -204
q0 -43 2 -72t14 -68t35 -63q44 -47 112 -47q25 0 46 7l-76 95l78 61l78 -99q37 55 37 186z" />
    <glyph glyph-name="R" unicode="R" horiz-adv-x="659" 
d="M628 0h-140l-118 268h-157v-268h-130v709h299q120 0 183 -63.5t63 -156.5q0 -70 -35.5 -123.5t-94.5 -75.5zM499 489q0 45 -32 76t-85 31h-170v-212h172q55 0 85 27.5t30 77.5z" />
    <glyph glyph-name="S" unicode="S" horiz-adv-x="632" 
d="M599 211q0 -89 -59 -148q-76 -76 -224 -76q-132 0 -212 73q-74 67 -74 165h132q0 -50 37 -87q38 -38 119 -38q86 0 123 38q28 30 28 68q0 69 -84 84q-25 5 -80 10t-77 9q-79 13 -129.5 63.5t-50.5 134.5q0 78 62 140q36 35 91 55t117 20q124 0 198 -69q71 -67 72 -151
h-132q-2 39 -31 70q-17 17 -47.5 27.5t-60.5 10.5q-77 0 -115 -39q-24 -26 -24 -60q0 -65 72 -77q25 -4 81 -10t73 -8q85 -12 140 -65t55 -140z" />
    <glyph glyph-name="T" unicode="T" horiz-adv-x="561" 
d="M555 589h-210v-589h-129v589h-210v120h549v-120z" />
    <glyph glyph-name="U" unicode="U" horiz-adv-x="682" 
d="M619 272q0 -130 -72 -207.5t-206 -77.5t-206 77.5t-72 207.5v437h129v-435q0 -79 37 -124.5t112 -45.5t112 45.5t37 124.5v435h129v-437z" />
    <glyph glyph-name="V" unicode="V" horiz-adv-x="610" 
d="M610 709l-233 -709h-142l-235 709h137l172 -541l171 541h130z" />
    <glyph glyph-name="W" unicode="W" horiz-adv-x="872" 
d="M855 709l-141 -709h-129l-148 489l-148 -489h-129l-143 709h123l99 -493l146 482h108l143 -482l101 493h118z" />
    <glyph glyph-name="X" unicode="X" horiz-adv-x="603" 
d="M601 0h-142l-159 258l-159 -258h-139l223 361l-221 348h141l159 -248l154 248h140l-218 -349z" />
    <glyph glyph-name="Y" unicode="Y" horiz-adv-x="624" 
d="M624 709l-248 -437v-272h-130v272l-246 437h140l175 -306l175 306h134z" />
    <glyph glyph-name="Z" unicode="Z" horiz-adv-x="615" 
d="M584 0h-555v127l391 465h-385v117h544v-127l-388 -465h393v-117z" />
    <glyph glyph-name="bracketleft" unicode="[" horiz-adv-x="363" 
d="M338 -148h-234v928h234v-85h-140v-758h140v-85z" />
    <glyph glyph-name="backslash" unicode="\" horiz-adv-x="389" 
d="M389 -13h-92l-307 735h92z" />
    <glyph glyph-name="bracketright" unicode="]" horiz-adv-x="363" 
d="M259 -148h-234v85h140v758h-140v85h234v-928z" />
    <glyph glyph-name="asciicircum" unicode="^" horiz-adv-x="538" 
d="M488 404h-138l-83 163l-84 -163h-133l170 318h99z" />
    <glyph glyph-name="underscore" unicode="_" horiz-adv-x="587" 
d="M563 -90h-539v88h539v-88z" />
    <glyph glyph-name="grave" unicode="`" horiz-adv-x="255" 
d="M243 631l-40 -65l-200 112l56 91z" />
    <glyph glyph-name="a" unicode="a" horiz-adv-x="562" 
d="M531 6q-33 -14 -62 -14q-39 0 -62 21t-26 52q-19 -33 -62 -55.5t-96 -22.5q-89 0 -138.5 47.5t-49.5 115.5q0 72 49.5 115t126.5 48l153 11v32q0 40 -19 61t-69 21q-90 0 -95 -74h-121q5 84 64.5 126.5t151.5 42.5q154 0 195 -106q15 -38 15 -105v-193q0 -18 6.5 -25.5
t22.5 -7.5l16 2v-92zM364 207v24l-132 -10q-31 -2 -53 -20t-22 -48q0 -29 22 -47t52 -18q60 0 96.5 31.5t36.5 87.5z" />
    <glyph glyph-name="b" unicode="b" horiz-adv-x="601" 
d="M559 259q0 -151 -93 -227q-54 -44 -126 -44q-101 0 -146 69l-8 -57h-108v722h125v-240q42 51 136 51q75 0 127 -42q93 -77 93 -232zM432 261q0 83 -33 126q-32 41 -84 41q-118 0 -118 -167q0 -101 45 -142q28 -26 73 -26q52 0 84 41q33 43 33 127z" />
    <glyph glyph-name="c" unicode="c" horiz-adv-x="531" 
d="M498 184q-3 -65 -40 -113q-66 -82 -178 -82q-56 0 -104 23.5t-77 58.5q-57 72 -57 190t57 190q29 35 77 58.5t104 23.5q112 0 178 -82q37 -48 40 -113h-123q-1 26 -15 48q-25 39 -80 39q-46 0 -76 -32q-35 -39 -35 -132t35 -131q31 -33 76 -33q55 0 80 39q14 22 15 48
h123z" />
    <glyph glyph-name="d" unicode="d" horiz-adv-x="601" 
d="M523 0h-108l-8 57q-45 -69 -146 -69q-73 0 -127 44q-92 76 -92 227q0 155 93 232q52 42 127 42q96 0 136 -49v238h125v-722zM404 261q0 167 -118 167q-52 0 -84 -41q-33 -43 -33 -126q0 -84 33 -127q32 -41 84 -41q118 0 118 168z" />
    <glyph glyph-name="e" unicode="e" horiz-adv-x="557" 
d="M518 256q-1 -24 -1 -35h-348q-2 -64 38 -102q34 -32 77 -32q51 0 76 25q18 18 25 44h120q-5 -49 -44 -96q-62 -73 -175 -73q-97 0 -164 64q-80 77 -80 208t75 208q64 66 166 66q126 0 190 -96q48 -73 45 -181zM393 312q-1 57 -32 91q-28 30 -79 30q-57 0 -87 -40
q-26 -33 -27 -81h225z" />
    <glyph glyph-name="f" unicode="f" horiz-adv-x="379" 
d="M379 623q-42 8 -82 8q-33 0 -50.5 -17t-17.5 -46v-48h139v-103h-139v-417h-125v417h-88v103h88v50q0 73 47 118.5t130 45.5q44 0 98 -11v-100z" />
    <glyph glyph-name="g" unicode="g" horiz-adv-x="551" 
d="M536 -69q0 -49 -22.5 -84.5t-60.5 -54t-79.5 -27t-88.5 -8.5q-123 0 -184 43q-63 44 -63 114q0 75 62 106q-24 13 -38 38t-14 51q0 67 62 105q-52 52 -52 128q0 90 60.5 140.5t152.5 50.5q64 0 118 -32q32 65 106 65q26 0 34 -2v-97q-1 0 -5 0.5t-5 0.5q-52 0 -63 -33
q27 -44 27 -94q0 -86 -62 -137.5t-150 -51.5q-44 0 -84 14q-26 -15 -26 -37q0 -38 57 -38h86q119 0 169 -35q63 -43 63 -125zM363 342q0 43 -25 70t-67 27t-67 -27t-25 -70t25 -69.5t67 -26.5t67 26.5t25 69.5zM418 -72q0 23 -11.5 37t-34 19.5t-38 6.5t-40.5 1h-98
q-47 -14 -47 -64q0 -72 131 -72q138 0 138 72z" />
    <glyph glyph-name="h" unicode="h" horiz-adv-x="591" 
d="M521 0h-125v321q0 48 -19.5 72.5t-66.5 24.5q-52 0 -79.5 -44.5t-27.5 -99.5v-274h-125v722h125v-257q22 32 61 50t81 18q82 0 129 -52t47 -134v-347z" />
    <glyph glyph-name="i" unicode="i" horiz-adv-x="286" 
d="M210 592h-134v129h134v-129zM207 0h-127v520h127v-520z" />
    <glyph glyph-name="j" unicode="j" horiz-adv-x="296" 
d="M220 594h-134v129h134v-129zM217 -72q0 -67 -38.5 -106t-107.5 -39q-28 0 -44 2q-28 4 -57 11v106q56 -6 61 -6q60 0 60 56v568h126v-592z" />
    <glyph glyph-name="k" unicode="k" horiz-adv-x="577" 
d="M577 0h-145l-146 227l-83 -90v-137h-125v722h125v-413l197 211h157l-186 -201z" />
    <glyph glyph-name="l" unicode="l" horiz-adv-x="302" 
d="M272 1q-35 -7 -55 -7q-67 0 -104.5 34t-37.5 106v589h126v-568q0 -25 10 -37.5t40 -12.5q6 0 12 0.5t9 0.5v-105z" />
    <glyph glyph-name="m" unicode="m" horiz-adv-x="885" 
d="M815 0h-124v323q0 51 -17.5 76t-62.5 25q-49 0 -75.5 -42.5t-26.5 -97.5v-284h-124v323q0 51 -17.5 76t-62.5 25q-49 0 -76 -42.5t-27 -97.5v-284h-124v520h104l10 -69q50 82 148 82q107 0 149 -85q49 85 157 85q81 0 125 -49.5t44 -132.5v-351z" />
    <glyph glyph-name="n" unicode="n" horiz-adv-x="591" 
d="M521 0h-125v319q0 49 -19.5 73.5t-66.5 24.5q-60 0 -90 -66q-17 -39 -17 -139v-212h-125v520h105l9 -67q22 39 63.5 59.5t89.5 20.5q82 0 129 -51.5t47 -134.5v-347z" />
    <glyph glyph-name="o" unicode="o" 
d="M528 260q0 -115 -61 -192q-29 -35 -77.5 -58t-104.5 -23t-104.5 23t-77.5 58q-61 77 -61 192t61 192q29 35 77.5 58t104.5 23t104.5 -23t77.5 -58q61 -77 61 -192zM401 260q0 90 -37 131q-31 33 -79 33t-79 -33q-37 -41 -37 -131t37 -131q31 -33 79 -33t79 33
q37 41 37 131z" />
    <glyph glyph-name="p" unicode="p" horiz-adv-x="601" 
d="M559 261q0 -156 -93 -232q-52 -42 -127 -42q-94 0 -136 51v-237h-125v719h108l8 -57q45 69 146 69q72 0 126 -44q93 -77 93 -227zM432 259q0 84 -33 127q-32 41 -84 41q-118 0 -118 -168q0 -167 118 -167q52 0 84 41q33 43 33 126z" />
    <glyph glyph-name="q" unicode="q" horiz-adv-x="601" 
d="M523 -199h-125v236q-41 -50 -136 -50q-75 0 -127 42q-93 76 -93 232q0 151 93 227q54 44 126 44q101 0 146 -69l8 57h108v-719zM404 259q0 168 -118 168q-52 0 -84 -41q-33 -43 -33 -127q0 -83 33 -126q32 -41 84 -41q118 0 118 167z" />
    <glyph glyph-name="r" unicode="r" horiz-adv-x="395" 
d="M381 404q-23 5 -43 5q-64 0 -99 -41t-35 -106v-262h-126v520h106l11 -78q17 43 57.5 64t89.5 21q20 0 39 -3v-120z" />
    <glyph glyph-name="s" unicode="s" horiz-adv-x="521" 
d="M482 161q0 -69 -45 -114q-60 -60 -178 -60q-105 0 -168 60q-55 53 -55 121h117q0 -38 28 -61q29 -23 79 -23q106 0 106 66q0 47 -52 55q-12 2 -64.5 8t-79.5 12q-53 11 -86 50t-33 89q0 71 53 117q60 52 158 52q106 0 163 -61q46 -49 46 -107h-119q0 26 -21 49
q-24 24 -68 24q-35 0 -54 -8q-40 -16 -40 -55q0 -43 60 -52q83 -11 111 -15q64 -10 103 -48.5t39 -98.5z" />
    <glyph glyph-name="t" unicode="t" horiz-adv-x="400" 
d="M372 7q-54 -14 -107 -14q-77 0 -117 42t-40 118v264h-95v103h95v132l125 31v-163h131v-103h-131v-253q0 -57 58 -57q39 0 81 5v-105z" />
    <glyph glyph-name="u" unicode="u" horiz-adv-x="590" 
d="M512 0h-104l-9 68q-19 -38 -59 -59.5t-90 -21.5q-83 0 -131.5 51t-48.5 135v347h125v-319q0 -99 90 -99q38 0 64 26q38 35 38 117v275h125v-520z" />
    <glyph glyph-name="v" unicode="v" horiz-adv-x="514" 
d="M514 520l-188 -520h-133l-193 520h132l130 -366l123 366h129z" />
    <glyph glyph-name="w" unicode="w" horiz-adv-x="771" 
d="M748 520l-127 -520h-116l-118 351l-116 -351h-116l-132 520h121l83 -341l109 336h103l110 -335l80 340h119z" />
    <glyph glyph-name="x" unicode="x" horiz-adv-x="516" 
d="M513 520l-179 -256l178 -264h-141l-116 174l-114 -174h-137l182 265l-183 255h144l116 -168l113 168h137z" />
    <glyph glyph-name="y" unicode="y" horiz-adv-x="530" 
d="M530 520l-229 -609q-50 -130 -160 -130q-46 0 -96 13v104q49 -9 70 -9q44 0 60 39l30 73l-205 519h137l136 -376l130 376h127z" />
    <glyph glyph-name="z" unicode="z" horiz-adv-x="507" 
d="M468 0h-424v110l275 307h-273v103h420v-113l-272 -304h274v-103z" />
    <glyph glyph-name="braceleft" unicode="{" horiz-adv-x="379" 
d="M379 -148h-53q-81 0 -122.5 48.5t-41.5 120.5q0 15 0.5 62t0.5 62q0 64 -28.5 92t-89.5 33v93q61 6 89.5 32.5t28.5 91.5q0 15 -0.5 62t-0.5 62q0 72 41.5 120.5t122.5 48.5h53v-85h-34q-48 0 -68 -23t-20 -68v-154q-1 -46 -29 -83t-79 -48v-3q51 -11 79 -49t29 -85v-154
q0 -45 20 -68t68 -23h34v-85z" />
    <glyph glyph-name="bar" unicode="|" horiz-adv-x="268" 
d="M183 -148h-98v928h98v-928z" />
    <glyph glyph-name="braceright" unicode="}" horiz-adv-x="379" 
d="M334 270q-61 -5 -89.5 -33t-28.5 -92q0 -15 0.5 -62t0.5 -62q0 -72 -41.5 -120.5t-122.5 -48.5h-53v85h34q48 0 68 23t20 68v154q1 47 29 85t79 49v3q-51 11 -79 48t-29 83v154q0 45 -20 68t-68 23h-34v85h53q81 0 122.5 -48.5t41.5 -120.5q0 -15 -0.5 -62t-0.5 -62
q0 -65 28.5 -91.5t89.5 -32.5v-93z" />
    <glyph glyph-name="asciitilde" unicode="~" horiz-adv-x="683" 
d="M623 306q-46 -48 -89 -74t-96 -26q-42 0 -107 31t-89 31q-47 0 -103 -60l-79 95q46 49 88 75.5t95 26.5q41 0 105 -30t90 -30q51 0 105 56z" />
    <glyph glyph-name="nbspace" unicode="&#xa0;" horiz-adv-x="708" 
 />
    <glyph glyph-name="exclamdown" unicode="&#xa1;" horiz-adv-x="332" 
d="M215 370h-132v135h132v-135zM214 -204h-131v222l28 275h75l28 -275v-222z" />
    <glyph glyph-name="cent" unicode="&#xa2;" 
d="M521 276q-3 -64 -40 -112q-55 -71 -148 -81v-85h-62v87q-92 13 -146 79t-54 190t54 190q54 67 146 80v88h62v-87q93 -10 148 -81q37 -48 40 -112h-121q-1 25 -15 47q-17 28 -52 37v-324q35 9 52 37q14 22 15 47h121zM271 194v320q-24 -9 -42 -28q-34 -37 -34 -132
t34 -132q18 -19 42 -28z" />
    <glyph glyph-name="sterling" unicode="&#xa3;" horiz-adv-x="575" 
d="M549 192q0 -94 -49.5 -143t-143.5 -49h-318v110q76 0 76 74v130h-75v103h75v91q0 94 55.5 148t149.5 54q87 0 143.5 -52t56.5 -138h-125q0 36 -19.5 59t-55.5 23q-39 0 -59 -24t-20 -64v-97h143v-103h-143v-131q0 -60 -37 -69v-2h151q41 0 58.5 19.5t17.5 60.5h119z" />
    <glyph glyph-name="currency" unicode="&#xa4;" horiz-adv-x="571" 
d="M564 64l-86 -84l-70 76q-57 -33 -121 -33t-123 33l-69 -76l-87 84l79 67q-36 63 -36 123t36 123l-79 63l88 87l67 -75q57 32 124 32q64 0 121 -32l69 75l87 -87l-78 -63q36 -63 36 -123q0 -62 -36 -123zM410 254q0 54 -33.5 90t-89.5 36q-61 0 -93 -34t-32 -92
q0 -53 34 -90t91 -37q58 0 90.5 35t32.5 92z" />
    <glyph glyph-name="yen" unicode="&#xa5;" horiz-adv-x="569" 
d="M569 695l-165 -297h114v-73h-170v-90h170v-73h-170v-162h-128v162h-159v73h159v90h-159v73h104l-165 297h139l149 -271l144 271h137z" />
    <glyph glyph-name="brokenbar" unicode="&#xa6;" horiz-adv-x="289" 
d="M206 440h-123v319h123v-319zM206 -50h-123v319h123v-319z" />
    <glyph glyph-name="section" unicode="&#xa7;" horiz-adv-x="549" 
d="M504 173q0 -79 -86 -138q40 -48 40 -110q0 -68 -46 -114q-53 -55 -142 -55q-81 0 -135.5 48.5t-54.5 131.5h109q0 -36 21.5 -59t58.5 -23q35 0 56 18.5t21 50.5q0 35 -35 66l-195 167q-66 56 -66 137q0 77 87 137q-41 49 -41 111q0 66 47 113q54 56 142 56
q81 0 135.5 -49t54.5 -132h-110q0 36 -21 59.5t-58 23.5q-35 0 -56 -18.5t-21 -50.5q0 -35 34 -66l195 -167q66 -56 66 -137zM394 165q0 38 -28 63l-160 139q-45 -31 -45 -66q0 -39 27 -63l161 -139q45 31 45 66z" />
    <glyph glyph-name="dieresis" unicode="&#xa8;" horiz-adv-x="323" 
d="M323 601h-117v121h117v-121zM117 601h-117v121h117v-121z" />
    <glyph glyph-name="copyright" unicode="&#xa9;" horiz-adv-x="838" 
d="M789 354q0 -161 -104.5 -264.5t-265.5 -103.5t-265.5 103.5t-104.5 264.5q0 159 105.5 263.5t264.5 104.5t264.5 -104.5t105.5 -263.5zM696 354q0 122 -77.5 202t-199.5 80t-199 -80t-77 -202q0 -123 76.5 -202.5t199.5 -79.5q121 0 199 80t78 202zM597 301
q-8 -65 -55 -106.5t-118 -41.5q-86 0 -137 57.5t-51 141.5t51 141t137 57q71 0 118 -41.5t55 -106.5h-102q-4 24 -23 40.5t-48 16.5q-42 0 -63.5 -31.5t-21.5 -75.5q0 -48 22 -78t63 -30q29 0 48 16.5t23 40.5h102z" />
    <glyph glyph-name="ordfeminine" unicode="&#xaa;" horiz-adv-x="475" 
d="M425 309q-25 -11 -47 -11q-29 0 -47 16t-20 40q-14 -25 -47 -42t-73 -17q-67 0 -104 36.5t-37 88.5q0 54 36.5 85.5t95.5 36.5l116 9v24q0 31 -14 46.5t-52 15.5q-68 0 -71 -56h-92q4 64 48.5 96.5t114.5 32.5q117 0 147 -81q11 -28 11 -80v-148q0 -24 23 -24l12 2v-70z
M298 462v18l-99 -8q-23 -2 -39.5 -15t-16.5 -36q0 -22 16 -36t39 -14q46 0 73 24t27 67z" />
    <glyph glyph-name="guillemotleft" unicode="&#xab;" horiz-adv-x="587" 
d="M532 105l-73 -51l-173 244l173 247l73 -52l-114 -194zM291 105l-73 -51l-173 244l173 247l73 -52l-114 -194z" />
    <glyph glyph-name="logicalnot" unicode="&#xac;" horiz-adv-x="665" 
d="M585 84h-122v167h-408v113h529z" />
    <glyph glyph-name="registered" unicode="&#xae;" horiz-adv-x="838" 
d="M789 354q0 -161 -104.5 -264.5t-265.5 -103.5t-265.5 103.5t-104.5 264.5q0 159 105.5 263.5t264.5 104.5t264.5 -104.5t105.5 -263.5zM695 354q0 122 -77 202t-199 80t-199 -80t-77 -202q0 -123 76.5 -202.5t199.5 -79.5q121 0 198.5 80t77.5 202zM571 178h-97l-49 120
h-47v-120h-93v365h145q60 0 99 -32.5t39 -91.5q0 -75 -57 -103zM474 422q0 19 -12.5 28.5t-31.5 9.5h-53v-79h53q44 0 44 41z" />
    <glyph glyph-name="macron" unicode="&#xaf;" horiz-adv-x="305" 
d="M305 631h-300v100h300v-100z" />
    <glyph glyph-name="degree" unicode="&#xb0;" horiz-adv-x="446" 
d="M396 555q0 -75 -51 -122t-124 -47q-72 0 -121.5 48.5t-49.5 120.5q0 71 46.5 119t124.5 48q77 0 126 -47.5t49 -119.5zM298 555q0 32 -22.5 54t-54.5 22t-53.5 -22t-21.5 -54q0 -33 21.5 -55.5t53.5 -22.5t54.5 22.5t22.5 55.5z" />
    <glyph glyph-name="plusminus" unicode="&#xb1;" horiz-adv-x="608" 
d="M558 322h-198v-160h-113v160h-197v105h197v160h113v-160h198v-105zM558 0h-508v106h508v-106z" />
    <glyph glyph-name="twosuperior" unicode="&#xb2;" horiz-adv-x="405" 
d="M350 341h-288v73l153 131q1 1 4.5 4t4.5 4t4.5 4t4.5 4t3 4t3 5l2.5 5t2 5.5t1 6t0.5 7.5q0 18 -12 29.5t-31 11.5q-48 0 -52 -55h-95q11 136 148 136q58 0 98.5 -33t40.5 -90q0 -56 -68 -112l-64 -53h140v-87z" />
    <glyph glyph-name="threesuperior" unicode="&#xb3;" horiz-adv-x="412" 
d="M357 450q0 -36 -21 -64q-38 -51 -133 -51q-72 0 -114 44q-30 30 -34 81h88q2 -24 19.5 -36t42.5 -12q24 0 42 10t18 32q0 39 -53 39h-27v73h27q45 0 45 36q0 19 -15.5 29t-35.5 10q-55 0 -61 -50h-87q4 56 39 88q42 37 109 37q84 0 124 -52q20 -27 20 -57
q0 -25 -14.5 -46.5t-37.5 -28.5q26 -8 42.5 -31.5t16.5 -50.5z" />
    <glyph glyph-name="acute" unicode="&#xb4;" horiz-adv-x="255" 
d="M247 678l-200 -112l-40 65l184 138z" />
    <glyph glyph-name="mu" unicode="&#xb5;" horiz-adv-x="598" 
d="M520 0h-104l-10 70q-19 -38 -59 -60.5t-89 -22.5q-35 0 -56 11v-200h-124v375v112v235h124v-235v-86q0 -99 91 -99q38 0 64 26q38 35 38 117v277h125v-520z" />
    <glyph glyph-name="paragraph" unicode="&#xb6;" horiz-adv-x="673" 
d="M613 612h-68v-737h-100v737h-97v-737h-99v436q-83 0 -141 58.5t-58 140.5t58 140.5t141 58.5h364v-97z" />
    <glyph glyph-name="periodcentered" unicode="&#xb7;" horiz-adv-x="315" 
d="M224 215h-152v156h152v-156z" />
    <glyph glyph-name="cedilla" unicode="&#xb8;" horiz-adv-x="198" 
d="M189 -31l-76 -199l-104 49l83 150h97z" />
    <glyph glyph-name="onesuperior" unicode="&#xb9;" horiz-adv-x="312" 
d="M227 344h-93v256l-95 -67v103l105 73h83v-365z" />
    <glyph glyph-name="ordmasculine" unicode="&#xba;" horiz-adv-x="475" 
d="M419 501q0 -91 -43 -144q-22 -27 -58.5 -45t-79.5 -18t-80 18t-59 45q-43 53 -43 144q0 93 44 147q22 26 58.5 43.5t79.5 17.5q87 0 137 -61q44 -54 44 -147zM323 501q0 73 -26 101q-23 25 -59 25q-37 0 -60 -25q-25 -27 -25 -101q0 -73 25 -100q23 -25 60 -25
q36 0 59 25q26 28 26 100z" />
    <glyph glyph-name="guillemotright" unicode="&#xbb;" horiz-adv-x="587" 
d="M542 298l-173 -244l-73 51l114 194l-114 194l73 52zM301 298l-173 -244l-73 51l114 194l-114 194l73 52z" />
    <glyph glyph-name="onequarter" unicode="&#xbc;" horiz-adv-x="883" 
d="M828 71h-48v-71h-90v71h-179v95l116 208h96l-123 -222h90v82h90v-82h48v-81zM718 670l-507 -690l-74 56l505 687zM262 344h-93v256l-95 -67v103l105 73h83v-365z" />
    <glyph glyph-name="onehalf" unicode="&#xbd;" horiz-adv-x="916" 
d="M814 0h-288v73l153 131q1 1 4.5 4t4.5 4t4.5 4t4.5 4t3 4t3 5l2.5 5t2 5.5t1 6t0.5 7.5q0 18 -12 29.5t-31 11.5q-48 0 -52 -55h-95q11 136 148 136q58 0 98.5 -33t40.5 -90q0 -56 -68 -112l-64 -53h140v-87zM703 670l-507 -690l-74 56l505 687zM257 344h-93v256l-95 -67
v103l105 73h83v-365z" />
    <glyph glyph-name="threequarters" unicode="&#xbe;" horiz-adv-x="920" 
d="M865 71h-48v-71h-90v71h-179v95l116 208h96l-123 -222h90v82h90v-82h48v-81zM769 670l-507 -690l-74 56l505 687zM363 450q0 -36 -21 -64q-38 -51 -133 -51q-72 0 -114 44q-30 30 -34 81h88q2 -24 19.5 -36t42.5 -12q24 0 42 10t18 32q0 39 -53 39h-27v73h27q45 0 45 36
q0 19 -15.5 29t-35.5 10q-55 0 -61 -50h-87q4 56 39 88q42 37 109 37q84 0 124 -52q20 -27 20 -57q0 -25 -14.5 -46.5t-37.5 -28.5q26 -8 42.5 -31.5t16.5 -50.5z" />
    <glyph glyph-name="questiondown" unicode="&#xbf;" horiz-adv-x="522" 
d="M334 364h-139v140h139v-140zM490 -8q0 -101 -68 -157t-172 -56q-97 0 -159.5 56t-62.5 140q0 92 79 159l24.5 20.5l23.5 19.5t18.5 18t16 22.5t8.5 26t4 33.5v28h124q0 -73 -5 -97q-7 -31 -22 -56.5t-28 -38t-38.5 -33t-35.5 -29.5q-39 -35 -39 -72q0 -35 26 -59.5
t71 -24.5q48 0 77 26t29 74h129z" />
    <glyph glyph-name="Agrave" unicode="&#xc0;" horiz-adv-x="639" 
d="M186 876l200 -112l40 65l-184 138zM639 0h-135l-46 136h-282l-46 -136h-130l249 709h141zM418 252l-101 299l-101 -299h202z" />
    <glyph glyph-name="Aacute" unicode="&#xc1;" horiz-adv-x="639" 
d="M639 0h-135l-46 136h-282l-46 -136h-130l249 709h141zM418 252l-101 299l-101 -299h202zM428 876l-200 -112l-40 65l184 138z" />
    <glyph glyph-name="Acircumflex" unicode="&#xc2;" horiz-adv-x="639" 
d="M639 0h-135l-46 136h-282l-46 -136h-130l249 709h141zM418 252l-101 299l-101 -299h202zM476 830l-61 -55l-103 113l-105 -116l-64 58l138 145h61z" />
    <glyph glyph-name="Atilde" unicode="&#xc3;" horiz-adv-x="639" 
d="M480 828q-58 -56 -112 -56q-29 0 -66.5 19t-51.5 19q-33 0 -62 -31l-49 61q58 56 112 56q28 0 65 -20t53 -20q28 0 61 33zM639 0h-135l-46 136h-282l-46 -136h-130l249 709h141zM418 252l-101 299l-101 -299h202z" />
    <glyph glyph-name="Adieresis" unicode="&#xc4;" horiz-adv-x="639" 
d="M639 0h-135l-46 136h-282l-46 -136h-130l249 709h141zM418 252l-101 299l-101 -299h202zM479 791h-117v121h117v-121zM273 791h-117v121h117v-121z" />
    <glyph glyph-name="Aring" unicode="&#xc5;" horiz-adv-x="639" 
d="M639 0h-135l-46 136h-282l-46 -136h-130l235 669q-44 37 -44 96q0 53 37.5 90t90.5 37t90.5 -37t37.5 -90q0 -59 -43 -96zM375 765q0 23 -16.5 39t-39.5 16t-38.5 -16t-15.5 -39t15.5 -39.5t38.5 -16.5t39.5 16.5t16.5 39.5zM418 252l-101 299l-101 -299h202z" />
    <glyph glyph-name="AE" unicode="&#xc6;" horiz-adv-x="957" 
d="M917 0h-462v179h-237l-77 -179h-141l323 709h594v-120h-333v-160h285v-120h-285v-189h333v-120zM455 298v291h-55l-128 -291h183z" />
    <glyph glyph-name="Ccedilla" unicode="&#xc7;" horiz-adv-x="628" 
d="M600 226q-10 -96 -68 -155q-82 -84 -203 -84q-122 0 -201 79q-53 53 -70.5 120.5t-17.5 167.5t17.5 167.5t70.5 120.5q80 80 201 80q123 0 203 -82q58 -59 68 -154h-132q-4 41 -32 75q-35 44 -107 44q-65 0 -109 -47q-23 -24 -34.5 -64t-13 -67t-1.5 -73t1.5 -73t13 -67
t34.5 -64q44 -47 109 -47q71 0 107 45q28 34 32 78h132zM398 -41l-76 -199l-104 49l83 150h97z" />
    <glyph glyph-name="Egrave" unicode="&#xc8;" horiz-adv-x="628" 
d="M588 0h-505v709h505v-117h-376v-165h331v-116h-331v-194h376v-117zM445 830l-40 -65l-200 112l56 91z" />
    <glyph glyph-name="Eacute" unicode="&#xc9;" horiz-adv-x="628" 
d="M588 0h-505v709h505v-117h-376v-165h331v-116h-331v-194h376v-117zM451 876l-200 -112l-40 65l184 138z" />
    <glyph glyph-name="Ecircumflex" unicode="&#xca;" horiz-adv-x="628" 
d="M588 0h-505v709h505v-117h-376v-165h331v-116h-331v-194h376v-117zM498 830l-61 -55l-103 113l-105 -116l-64 58l138 145h61z" />
    <glyph glyph-name="Edieresis" unicode="&#xcb;" horiz-adv-x="628" 
d="M588 0h-505v709h505v-117h-376v-165h331v-116h-331v-194h376v-117zM509 791h-117v121h117v-121zM303 791h-117v121h117v-121z" />
    <glyph glyph-name="Igrave" unicode="&#xcc;" horiz-adv-x="297" 
d="M214 0h-131v709h131v-709zM265 835l-40 -65l-200 112l56 91z" />
    <glyph glyph-name="Iacute" unicode="&#xcd;" horiz-adv-x="297" 
d="M214 0h-131v709h131v-709zM269 881l-200 -112l-40 65l184 138z" />
    <glyph glyph-name="Icircumflex" unicode="&#xce;" horiz-adv-x="297" 
d="M214 0h-131v709h131v-709zM314 830l-61 -55l-103 113l-105 -116l-64 58l138 145h61z" />
    <glyph glyph-name="Idieresis" unicode="&#xcf;" horiz-adv-x="297" 
d="M214 0h-131v709h131v-709zM311 791h-117v121h117v-121zM105 791h-117v121h117v-121z" />
    <glyph glyph-name="Eth" unicode="&#xd0;" horiz-adv-x="684" 
d="M641 355q0 -90 -16.5 -159t-66.5 -120q-73 -76 -199 -76h-276v326h-63v84h63v299h276q126 0 199 -76q50 -51 66.5 -120t16.5 -158zM510 355q0 44 -2 71.5t-14 65.5t-35 61q-40 40 -100 40h-147v-183h131v-84h-131v-210h147q60 0 100 40q23 23 35 61.5t14 66t2 71.5z" />
    <glyph glyph-name="Ntilde" unicode="&#xd1;" horiz-adv-x="733" 
d="M650 0h-133l-307 487v-487h-127v709h137l303 -480v480h127v-709zM537 852q-58 -60 -115 -60q-30 0 -68 20.5t-53 20.5q-34 0 -63 -33l-51 64q60 60 115 60q29 0 67 -21t54 -21q29 0 63 34z" />
    <glyph glyph-name="Ograve" unicode="&#xd2;" horiz-adv-x="672" 
d="M630 354q0 -98 -18.5 -166t-71.5 -121q-80 -80 -204 -80t-204 80q-53 53 -71.5 121t-18.5 166q0 99 18.5 167t71.5 121q80 80 204 80t204 -80q53 -53 71.5 -121t18.5 -167zM499 354q0 151 -51 204q-44 47 -112 47t-112 -47q-51 -53 -51 -204q0 -43 2 -72t14 -68t35 -63
q44 -47 112 -47t112 47q23 24 35 63t14 68t2 72zM451 830l-40 -65l-200 112l56 91z" />
    <glyph glyph-name="Oacute" unicode="&#xd3;" horiz-adv-x="672" 
d="M630 354q0 -98 -18.5 -166t-71.5 -121q-80 -80 -204 -80t-204 80q-53 53 -71.5 121t-18.5 166q0 99 18.5 167t71.5 121q80 80 204 80t204 -80q53 -53 71.5 -121t18.5 -167zM499 354q0 151 -51 204q-44 47 -112 47t-112 -47q-51 -53 -51 -204q0 -43 2 -72t14 -68t35 -63
q44 -47 112 -47t112 47q23 24 35 63t14 68t2 72zM445 876l-200 -112l-40 65l184 138z" />
    <glyph glyph-name="Ocircumflex" unicode="&#xd4;" horiz-adv-x="672" 
d="M630 354q0 -98 -18.5 -166t-71.5 -121q-80 -80 -204 -80t-204 80q-53 53 -71.5 121t-18.5 166q0 99 18.5 167t71.5 121q80 80 204 80t204 -80q53 -53 71.5 -121t18.5 -167zM499 354q0 151 -51 204q-44 47 -112 47t-112 -47q-51 -53 -51 -204q0 -43 2 -72t14 -68t35 -63
q44 -47 112 -47t112 47q23 24 35 63t14 68t2 72zM504 830l-61 -55l-103 113l-105 -116l-64 58l138 145h61z" />
    <glyph glyph-name="Otilde" unicode="&#xd5;" horiz-adv-x="672" 
d="M630 354q0 -98 -18.5 -166t-71.5 -121q-80 -80 -204 -80t-204 80q-53 53 -71.5 121t-18.5 166q0 99 18.5 167t71.5 121q80 80 204 80t204 -80q53 -53 71.5 -121t18.5 -167zM499 354q0 151 -51 204q-44 47 -112 47t-112 -47q-51 -53 -51 -204q0 -43 2 -72t14 -68t35 -63
q44 -47 112 -47t112 47q23 24 35 63t14 68t2 72zM507 834q-56 -56 -112 -56q-29 0 -66.5 19t-51.5 19q-32 0 -61 -31l-50 61q58 56 112 56q28 0 65 -19.5t53 -19.5q28 0 62 32z" />
    <glyph glyph-name="Odieresis" unicode="&#xd6;" horiz-adv-x="672" 
d="M630 354q0 -98 -18.5 -166t-71.5 -121q-80 -80 -204 -80t-204 80q-53 53 -71.5 121t-18.5 166q0 99 18.5 167t71.5 121q80 80 204 80t204 -80q53 -53 71.5 -121t18.5 -167zM499 354q0 151 -51 204q-44 47 -112 47t-112 -47q-51 -53 -51 -204q0 -43 2 -72t14 -68t35 -63
q44 -47 112 -47t112 47q23 24 35 63t14 68t2 72zM498 793h-117v121h117v-121zM292 793h-117v121h117v-121z" />
    <glyph glyph-name="multiply" unicode="&#xd7;" horiz-adv-x="687" 
d="M551 17l-208 208l-208 -208l-72 72l208 208l-208 208l72 72l208 -207l208 207l73 -72l-208 -208l208 -208z" />
    <glyph glyph-name="Oslash" unicode="&#xd8;" horiz-adv-x="672" 
d="M630 354q0 -98 -18.5 -166t-71.5 -121q-80 -80 -204 -80q-67 0 -124 25l-40 -84l-67 30l43 94q-6 5 -16 15q-53 53 -71.5 121t-18.5 166q0 99 18.5 167t71.5 121q80 80 204 80q62 0 115 -22l33 70l67 -30l-35 -76q16 -14 24 -22q53 -53 71.5 -121t18.5 -167zM499 354
q0 137 -39 190l-197 -422q35 -18 73 -18q68 0 112 47q23 24 35 63t14 68t2 72zM400 591q-31 14 -64 14q-68 0 -112 -47q-51 -53 -51 -204q0 -124 33 -179z" />
    <glyph glyph-name="Ugrave" unicode="&#xd9;" horiz-adv-x="682" 
d="M619 272q0 -130 -72 -207.5t-206 -77.5t-206 77.5t-72 207.5v437h129v-435q0 -79 37 -124.5t112 -45.5t112 45.5t37 124.5v435h129v-437zM448 835l-40 -65l-200 112l56 91z" />
    <glyph glyph-name="Uacute" unicode="&#xda;" horiz-adv-x="682" 
d="M619 272q0 -130 -72 -207.5t-206 -77.5t-206 77.5t-72 207.5v437h129v-435q0 -79 37 -124.5t112 -45.5t112 45.5t37 124.5v435h129v-437zM471 881l-200 -112l-40 65l184 138z" />
    <glyph glyph-name="Ucircumflex" unicode="&#xdb;" horiz-adv-x="682" 
d="M619 272q0 -130 -72 -207.5t-206 -77.5t-206 77.5t-72 207.5v437h129v-435q0 -79 37 -124.5t112 -45.5t112 45.5t37 124.5v435h129v-437zM509 830l-61 -55l-103 113l-105 -116l-64 58l138 145h61z" />
    <glyph glyph-name="Udieresis" unicode="&#xdc;" horiz-adv-x="682" 
d="M619 272q0 -130 -72 -207.5t-206 -77.5t-206 77.5t-72 207.5v437h129v-435q0 -79 37 -124.5t112 -45.5t112 45.5t37 124.5v435h129v-437zM502 792h-117v121h117v-121zM296 792h-117v121h117v-121z" />
    <glyph glyph-name="Yacute" unicode="&#xdd;" horiz-adv-x="624" 
d="M624 709l-248 -437v-272h-130v272l-246 437h140l175 -306l175 306h134zM433 876l-200 -112l-40 65l184 138z" />
    <glyph glyph-name="Thorn" unicode="&#xde;" horiz-adv-x="594" 
d="M581 364q0 -109 -62.5 -170.5t-182.5 -61.5h-125v-132h-128v709h128v-119h125q119 0 182 -60.5t63 -165.5zM451 363q0 114 -120 114h-120v-233h120q64 0 92 30t28 89z" />
    <glyph glyph-name="germandbls" unicode="&#xdf;" horiz-adv-x="609" 
d="M584 211q0 -97 -59.5 -159t-156.5 -62q-53 0 -94 10v109q32 -6 67 -6q55 0 86 33.5t31 87.5q0 123 -136 123h-21v104h21q40 0 63.5 22.5t23.5 61.5q0 41 -24.5 65t-64.5 24q-99 0 -99 -120v-504h-123v417h-83v103h85q1 99 63 155.5t159 56.5q92 0 152.5 -51.5
t60.5 -134.5q0 -47 -26 -88t-69 -54q68 -15 106 -68.5t38 -124.5z" />
    <glyph glyph-name="agrave" unicode="&#xe0;" horiz-adv-x="562" 
d="M531 6q-33 -14 -62 -14q-39 0 -62 21t-26 52q-19 -33 -62 -55.5t-96 -22.5q-89 0 -138.5 47.5t-49.5 115.5q0 72 49.5 115t126.5 48l153 11v32q0 40 -19 61t-69 21q-90 0 -95 -74h-121q5 84 64.5 126.5t151.5 42.5q154 0 195 -106q15 -38 15 -105v-193q0 -18 6.5 -25.5
t22.5 -7.5l16 2v-92zM364 207v24l-132 -10q-31 -2 -53 -20t-22 -48q0 -29 22 -47t52 -18q60 0 96.5 31.5t36.5 87.5zM157 678l200 -112l40 65l-184 138z" />
    <glyph glyph-name="aacute" unicode="&#xe1;" horiz-adv-x="562" 
d="M531 6q-33 -14 -62 -14q-39 0 -62 21t-26 52q-19 -33 -62 -55.5t-96 -22.5q-89 0 -138.5 47.5t-49.5 115.5q0 72 49.5 115t126.5 48l153 11v32q0 40 -19 61t-69 21q-90 0 -95 -74h-121q5 84 64.5 126.5t151.5 42.5q154 0 195 -106q15 -38 15 -105v-193q0 -18 6.5 -25.5
t22.5 -7.5l16 2v-92zM364 207v24l-132 -10q-31 -2 -53 -20t-22 -48q0 -29 22 -47t52 -18q60 0 96.5 31.5t36.5 87.5zM382 678l-200 -112l-40 65l184 138z" />
    <glyph glyph-name="acircumflex" unicode="&#xe2;" horiz-adv-x="562" 
d="M531 6q-33 -14 -62 -14q-39 0 -62 21t-26 52q-19 -33 -62 -55.5t-96 -22.5q-89 0 -138.5 47.5t-49.5 115.5q0 72 49.5 115t126.5 48l153 11v32q0 40 -19 61t-69 21q-90 0 -95 -74h-121q5 84 64.5 126.5t151.5 42.5q154 0 195 -106q15 -38 15 -105v-193q0 -18 6.5 -25.5
t22.5 -7.5l16 2v-92zM364 207v24l-132 -10q-31 -2 -53 -20t-22 -48q0 -29 22 -47t52 -18q60 0 96.5 31.5t36.5 87.5zM437 629l-61 -55l-103 113l-105 -116l-64 58l138 145h61z" />
    <glyph glyph-name="atilde" unicode="&#xe3;" horiz-adv-x="562" 
d="M531 6q-33 -14 -62 -14q-39 0 -62 21t-26 52q-19 -33 -62 -55.5t-96 -22.5q-89 0 -138.5 47.5t-49.5 115.5q0 72 49.5 115t126.5 48l153 11v32q0 40 -19 61t-69 21q-90 0 -95 -74h-121q5 84 64.5 126.5t151.5 42.5q154 0 195 -106q15 -38 15 -105v-193q0 -18 6.5 -25.5
t22.5 -7.5l16 2v-92zM364 207v24l-132 -10q-31 -2 -53 -20t-22 -48q0 -29 22 -47t52 -18q60 0 96.5 31.5t36.5 87.5zM443 672q-59 -59 -113 -59q-29 0 -66.5 20t-51.5 20q-34 0 -62 -32l-50 63q59 59 113 59q28 0 65 -20.5t53 -20.5q31 0 62 33z" />
    <glyph glyph-name="adieresis" unicode="&#xe4;" horiz-adv-x="562" 
d="M531 6q-33 -14 -62 -14q-39 0 -62 21t-26 52q-19 -33 -62 -55.5t-96 -22.5q-89 0 -138.5 47.5t-49.5 115.5q0 72 49.5 115t126.5 48l153 11v32q0 40 -19 61t-69 21q-90 0 -95 -74h-121q5 84 64.5 126.5t151.5 42.5q154 0 195 -106q15 -38 15 -105v-193q0 -18 6.5 -25.5
t22.5 -7.5l16 2v-92zM364 207v24l-132 -10q-31 -2 -53 -20t-22 -48q0 -29 22 -47t52 -18q60 0 96.5 31.5t36.5 87.5zM442 601h-117v121h117v-121zM236 601h-117v121h117v-121z" />
    <glyph glyph-name="aring" unicode="&#xe5;" horiz-adv-x="562" 
d="M531 6q-33 -14 -62 -14q-39 0 -62 21t-26 52q-19 -33 -62 -55.5t-96 -22.5q-89 0 -138.5 47.5t-49.5 115.5q0 72 49.5 115t126.5 48l153 11v32q0 40 -19 61t-69 21q-90 0 -95 -74h-121q5 84 64.5 126.5t151.5 42.5q154 0 195 -106q15 -38 15 -105v-193q0 -18 6.5 -25.5
t22.5 -7.5l16 2v-92zM364 207v24l-132 -10q-31 -2 -53 -20t-22 -48q0 -29 22 -47t52 -18q60 0 96.5 31.5t36.5 87.5zM396 710q0 -51 -35.5 -86.5t-86.5 -35.5t-86.5 35.5t-35.5 86.5t35.5 86t86.5 35t86.5 -35t35.5 -86zM327 710q0 22 -15.5 37t-37.5 15t-37 -15t-15 -37
t15 -37.5t37 -15.5t37.5 15.5t15.5 37.5z" />
    <glyph glyph-name="ae" unicode="&#xe6;" horiz-adv-x="860" 
d="M821 219h-344q6 -135 113 -135q76 0 101 70h121q-6 -49 -43 -93q-61 -74 -175 -74q-68 0 -119.5 28.5t-71.5 72.5q-53 -101 -182 -101q-75 0 -130.5 42.5t-55.5 119.5q0 73 49.5 113.5t126.5 46.5l140 2v45q0 42 -19.5 60.5t-61.5 18.5q-86 0 -92 -71h-121q5 84 63 126.5
t150 42.5q101 0 158 -61q54 61 160 61q124 0 188 -95q45 -66 45 -191v-28zM695 311q-1 56 -27 89.5t-81 33.5q-54 0 -81.5 -34.5t-29.5 -88.5h219zM351 219q-94 0 -121 -2q-73 -5 -73 -64q0 -29 21.5 -46t51.5 -17q59 0 90 36.5t31 92.5z" />
    <glyph glyph-name="ccedilla" unicode="&#xe7;" horiz-adv-x="531" 
d="M498 184q-3 -65 -40 -113q-66 -82 -178 -82q-56 0 -104 23.5t-77 58.5q-57 72 -57 190t57 190q29 35 77 58.5t104 23.5q112 0 178 -82q37 -48 40 -113h-123q-1 26 -15 48q-25 39 -80 39q-46 0 -76 -32q-35 -39 -35 -132t35 -131q31 -33 76 -33q55 0 80 39q14 22 15 48
h123zM350 -44l-76 -199l-104 49l83 150h97z" />
    <glyph glyph-name="egrave" unicode="&#xe8;" horiz-adv-x="557" 
d="M518 256q-1 -24 -1 -35h-348q-2 -64 38 -102q34 -32 77 -32q51 0 76 25q18 18 25 44h120q-5 -49 -44 -96q-62 -73 -175 -73q-97 0 -164 64q-80 77 -80 208t75 208q64 66 166 66q126 0 190 -96q48 -73 45 -181zM393 312q-1 57 -32 91q-28 30 -79 30q-57 0 -87 -40
q-26 -33 -27 -81h225zM164 679l200 -112l40 65l-184 138z" />
    <glyph glyph-name="eacute" unicode="&#xe9;" horiz-adv-x="557" 
d="M518 256q-1 -24 -1 -35h-348q-2 -64 38 -102q34 -32 77 -32q51 0 76 25q18 18 25 44h120q-5 -49 -44 -96q-62 -73 -175 -73q-97 0 -164 64q-80 77 -80 208t75 208q64 66 166 66q126 0 190 -96q48 -73 45 -181zM393 312q-1 57 -32 91q-28 30 -79 30q-57 0 -87 -40
q-26 -33 -27 -81h225zM409 678l-200 -112l-40 65l184 138z" />
    <glyph glyph-name="ecircumflex" unicode="&#xea;" horiz-adv-x="557" 
d="M518 256q-1 -24 -1 -35h-348q-2 -64 38 -102q34 -32 77 -32q51 0 76 25q18 18 25 44h120q-5 -49 -44 -96q-62 -73 -175 -73q-97 0 -164 64q-80 77 -80 208t75 208q64 66 166 66q126 0 190 -96q48 -73 45 -181zM393 312q-1 57 -32 91q-28 30 -79 30q-57 0 -87 -40
q-26 -33 -27 -81h225zM441 629l-61 -55l-103 113l-105 -116l-64 58l138 145h61z" />
    <glyph glyph-name="edieresis" unicode="&#xeb;" horiz-adv-x="557" 
d="M518 256q-1 -24 -1 -35h-348q-2 -64 38 -102q34 -32 77 -32q51 0 76 25q18 18 25 44h120q-5 -49 -44 -96q-62 -73 -175 -73q-97 0 -164 64q-80 77 -80 208t75 208q64 66 166 66q126 0 190 -96q48 -73 45 -181zM393 312q-1 57 -32 91q-28 30 -79 30q-57 0 -87 -40
q-26 -33 -27 -81h225zM453 601h-117v121h117v-121zM247 601h-117v121h117v-121z" />
    <glyph glyph-name="igrave" unicode="&#xec;" horiz-adv-x="286" 
d="M207 0h-127v520h127v-520zM32 670l178 -103l36 60l-164 127z" />
    <glyph glyph-name="iacute" unicode="&#xed;" horiz-adv-x="286" 
d="M207 0h-127v520h127v-520zM238 671l-178 -103l-36 60l164 127z" />
    <glyph glyph-name="icircumflex" unicode="&#xee;" horiz-adv-x="286" 
d="M207 0h-127v520h127v-520zM291 619l-55 -50l-91 104l-94 -107l-57 53l123 134h54z" />
    <glyph glyph-name="idieresis" unicode="&#xef;" horiz-adv-x="286" 
d="M207 0h-127v520h127v-520zM287 608h-104v107h104v-107zM103 608h-104v107h104v-107z" />
    <glyph glyph-name="eth" unicode="&#xf0;" horiz-adv-x="562" 
d="M520 259q0 -118 -57 -190q-29 -35 -77.5 -58.5t-104.5 -23.5t-104.5 23.5t-77.5 58.5q-57 72 -57 190q0 120 58 193q29 35 77 58t104 23h6l-30 50h-110v67h71l-41 72h125l42 -72h96v-67h-56l91 -149q45 -74 45 -175zM393 259q0 96 -34 133q-31 33 -78 33t-78 -33
q-34 -37 -34 -133q0 -95 34 -132q31 -33 78 -33t78 33q34 37 34 132z" />
    <glyph glyph-name="ntilde" unicode="&#xf1;" horiz-adv-x="591" 
d="M521 0h-125v319q0 49 -19.5 73.5t-66.5 24.5q-60 0 -90 -66q-17 -39 -17 -139v-212h-125v520h105l9 -67q22 39 63.5 59.5t89.5 20.5q82 0 129 -51.5t47 -134.5v-347zM476 672q-59 -59 -112 -59q-29 0 -67 20t-52 20q-32 0 -62 -32l-50 63q59 59 113 59q28 0 65 -20.5
t54 -20.5q30 0 61 33z" />
    <glyph glyph-name="ograve" unicode="&#xf2;" 
d="M528 260q0 -115 -61 -192q-29 -35 -77.5 -58t-104.5 -23t-104.5 23t-77.5 58q-61 77 -61 192t61 192q29 35 77.5 58t104.5 23t104.5 -23t77.5 -58q61 -77 61 -192zM401 260q0 90 -37 131q-31 33 -79 33t-79 -33q-37 -41 -37 -131t37 -131q31 -33 79 -33t79 33
q37 41 37 131zM167 679l200 -112l40 65l-184 138z" />
    <glyph glyph-name="oacute" unicode="&#xf3;" 
d="M528 260q0 -115 -61 -192q-29 -35 -77.5 -58t-104.5 -23t-104.5 23t-77.5 58q-61 77 -61 192t61 192q29 35 77.5 58t104.5 23t104.5 -23t77.5 -58q61 -77 61 -192zM401 260q0 90 -37 131q-31 33 -79 33t-79 -33q-37 -41 -37 -131t37 -131q31 -33 79 -33t79 33
q37 41 37 131zM410 678l-200 -112l-40 65l184 138z" />
    <glyph glyph-name="ocircumflex" unicode="&#xf4;" 
d="M528 260q0 -115 -61 -192q-29 -35 -77.5 -58t-104.5 -23t-104.5 23t-77.5 58q-61 77 -61 192t61 192q29 35 77.5 58t104.5 23t104.5 -23t77.5 -58q61 -77 61 -192zM401 260q0 90 -37 131q-31 33 -79 33t-79 -33q-37 -41 -37 -131t37 -131q31 -33 79 -33t79 33
q37 41 37 131zM445 629l-61 -55l-103 113l-105 -116l-64 58l138 145h61z" />
    <glyph glyph-name="otilde" unicode="&#xf5;" 
d="M528 260q0 -115 -61 -192q-29 -35 -77.5 -58t-104.5 -23t-104.5 23t-77.5 58q-61 77 -61 192t61 192q29 35 77.5 58t104.5 23t104.5 -23t77.5 -58q61 -77 61 -192zM401 260q0 90 -37 131q-31 33 -79 33t-79 -33q-37 -41 -37 -131t37 -131q31 -33 79 -33t79 33
q37 41 37 131zM444 678q-56 -58 -112 -58q-29 0 -67 20t-52 20q-31 0 -62 -33l-50 63q57 59 113 59q28 0 65 -20.5t54 -20.5q30 0 61 33z" />
    <glyph glyph-name="odieresis" unicode="&#xf6;" 
d="M528 260q0 -115 -61 -192q-29 -35 -77.5 -58t-104.5 -23t-104.5 23t-77.5 58q-61 77 -61 192t61 192q29 35 77.5 58t104.5 23t104.5 -23t77.5 -58q61 -77 61 -192zM401 260q0 90 -37 131q-31 33 -79 33t-79 -33q-37 -41 -37 -131t37 -131q31 -33 79 -33t79 33
q37 41 37 131zM451 601h-117v121h117v-121zM245 601h-117v121h117v-121z" />
    <glyph glyph-name="divide" unicode="&#xf7;" horiz-adv-x="648" 
d="M394 436h-137v139h137v-139zM588 243h-528v114h528v-114zM394 30h-137v139h137v-139z" />
    <glyph glyph-name="oslash" unicode="&#xf8;" 
d="M528 260q0 -115 -61 -192q-29 -35 -77.5 -58t-104.5 -23q-48 0 -87 15l-35 -77l-63 28l37 82q-22 17 -34 33q-61 77 -61 192t61 192q29 35 77.5 58t104.5 23q38 0 74 -11l29 62l63 -28l-29 -64q28 -19 45 -40q61 -77 61 -192zM401 260q0 82 -29 122l-127 -279
q17 -7 40 -7q48 0 79 33q37 41 37 131zM313 421q-14 3 -28 3q-48 0 -79 -33q-37 -41 -37 -131q0 -71 21 -109z" />
    <glyph glyph-name="ugrave" unicode="&#xf9;" horiz-adv-x="590" 
d="M512 0h-104l-9 68q-19 -38 -59 -59.5t-90 -21.5q-83 0 -131.5 51t-48.5 135v347h125v-319q0 -99 90 -99q38 0 64 26q38 35 38 117v275h125v-520zM161 678l200 -112l40 65l-184 138z" />
    <glyph glyph-name="uacute" unicode="&#xfa;" horiz-adv-x="590" 
d="M512 0h-104l-9 68q-19 -38 -59 -59.5t-90 -21.5q-83 0 -131.5 51t-48.5 135v347h125v-319q0 -99 90 -99q38 0 64 26q38 35 38 117v275h125v-520zM422 678l-200 -112l-40 65l184 138z" />
    <glyph glyph-name="ucircumflex" unicode="&#xfb;" horiz-adv-x="590" 
d="M512 0h-104l-9 68q-19 -38 -59 -59.5t-90 -21.5q-83 0 -131.5 51t-48.5 135v347h125v-319q0 -99 90 -99q38 0 64 26q38 35 38 117v275h125v-520zM451 629l-61 -55l-103 113l-105 -116l-64 58l138 145h61z" />
    <glyph glyph-name="udieresis" unicode="&#xfc;" horiz-adv-x="590" 
d="M512 0h-104l-9 68q-19 -38 -59 -59.5t-90 -21.5q-83 0 -131.5 51t-48.5 135v347h125v-319q0 -99 90 -99q38 0 64 26q38 35 38 117v275h125v-520zM457 601h-117v121h117v-121zM251 601h-117v121h117v-121z" />
    <glyph glyph-name="yacute" unicode="&#xfd;" horiz-adv-x="530" 
d="M530 520l-229 -609q-50 -130 -160 -130q-46 0 -96 13v104q49 -9 70 -9q44 0 60 39l30 73l-205 519h137l136 -376l130 376h127zM413 675l-200 -112l-40 65l184 138z" />
    <glyph glyph-name="thorn" unicode="&#xfe;" horiz-adv-x="592" 
d="M550 260q0 -138 -74 -215q-55 -57 -137 -57q-42 0 -80.5 15.5t-56.5 44.5v-247h-124v459v462h124v-249q18 29 56.5 44.5t80.5 15.5q82 0 137 -57q74 -77 74 -216zM424 260q0 90 -35 134q-29 36 -78 36q-115 0 -115 -170q0 -169 115 -169q49 0 78 36q35 44 35 133z" />
    <glyph glyph-name="ydieresis" unicode="&#xff;" horiz-adv-x="530" 
d="M530 520l-229 -609q-50 -130 -160 -130q-46 0 -96 13v104q49 -9 70 -9q44 0 60 39l30 73l-205 519h137l136 -376l130 376h127zM434 601h-117v121h117v-121zM228 601h-117v121h117v-121z" />
    <glyph glyph-name="dotlessi" unicode="&#x131;" horiz-adv-x="286" 
d="M207 0h-127v520h127v-520z" />
    <glyph glyph-name="Lslash" unicode="&#x141;" horiz-adv-x="566" 
d="M557 0h-458v274l-53 -33l-43 69l96 60v339h129v-258l109 69l44 -70l-153 -95v-233h329v-122z" />
    <glyph glyph-name="lslash" unicode="&#x142;" horiz-adv-x="389" 
d="M373 464l-109 -69v-240q0 -25 10 -37.5t40 -12.5q6 0 12 0.5t9 0.5v-105q-35 -7 -55 -7q-67 0 -104.5 34t-37.5 106v181l-45 -28l-43 69l88 56v311h126v-231l65 41z" />
    <glyph glyph-name="OE" unicode="&#x152;" horiz-adv-x="1030" 
d="M990 0h-505v36q-65 -49 -157 -49q-127 0 -205 80q-50 52 -65.5 121.5t-15.5 166.5t15 166t66 121q78 80 205 80q43 0 87.5 -14t69.5 -35v36h505v-117h-376v-165h331v-116h-331v-194h376v-117zM483 355v13q0 46 -1.5 72t-13 63.5t-34.5 60.5q-41 41 -106 41t-106 -41
q-23 -23 -34.5 -60.5t-13 -63.5t-1.5 -72v-13v-13q0 -46 1.5 -72.5t13 -64t34.5 -60.5q41 -41 106 -41t106 41q23 23 34.5 61t13 63.5t1.5 72.5v13z" />
    <glyph glyph-name="oe" unicode="&#x153;" horiz-adv-x="904" 
d="M865 256q-1 -24 -1 -35h-344q-2 -68 38 -106q33 -31 73 -31q50 0 77 27q18 18 25 45h120q-5 -49 -44 -96q-62 -73 -174 -73q-96 0 -163 64l-13 13q-29 -34 -76 -55.5t-102 -21.5q-56 0 -104.5 23.5t-77.5 58.5q-57 72 -57 190q0 120 58 193q29 35 77 58t104 23
q55 0 101.5 -21.5t75.5 -54.5l9 9q65 67 165 67q125 0 189 -97q47 -71 44 -180zM740 312q-2 60 -31 92q-28 30 -78 30q-56 0 -86 -40q-25 -31 -26 -82h221zM393 259q0 96 -34 133q-31 33 -78 33t-78 -33q-34 -37 -34 -133q0 -95 34 -132q31 -33 78 -33t78 33q34 37 34 132z
" />
    <glyph glyph-name="Scaron" unicode="&#x160;" horiz-adv-x="632" 
d="M599 211q0 -89 -59 -148q-76 -76 -224 -76q-132 0 -212 73q-74 67 -74 165h132q0 -50 37 -87q38 -38 119 -38q86 0 123 38q28 30 28 68q0 69 -84 84q-25 5 -80 10t-77 9q-79 13 -129.5 63.5t-50.5 134.5q0 78 62 140q36 35 91 55t117 20q124 0 198 -69q71 -67 72 -151
h-132q-2 39 -31 70q-17 17 -47.5 27.5t-60.5 10.5q-77 0 -115 -39q-24 -26 -24 -60q0 -65 72 -77q25 -4 81 -10t73 -8q85 -12 140 -65t55 -140zM142 920l140 -148h63l136 148l-62 56l-105 -115l-107 118z" />
    <glyph glyph-name="scaron" unicode="&#x161;" horiz-adv-x="521" 
d="M482 161q0 -69 -45 -114q-60 -60 -178 -60q-105 0 -168 60q-55 53 -55 121h117q0 -38 28 -61q29 -23 79 -23q106 0 106 66q0 47 -52 55q-12 2 -64.5 8t-79.5 12q-53 11 -86 50t-33 89q0 71 53 117q60 52 158 52q106 0 163 -61q46 -49 46 -107h-119q0 26 -21 49
q-24 24 -68 24q-35 0 -54 -8q-40 -16 -40 -55q0 -43 60 -52q83 -11 111 -15q64 -10 103 -48.5t39 -98.5zM112 706l126 -134h57l122 134l-56 50l-94 -103l-96 106z" />
    <glyph glyph-name="Ydieresis" unicode="&#x178;" horiz-adv-x="624" 
d="M624 709l-248 -437v-272h-130v272l-246 437h140l175 -306l175 306h134zM477 779h-117v121h117v-121zM271 779h-117v121h117v-121z" />
    <glyph glyph-name="Zcaron" unicode="&#x17d;" horiz-adv-x="615" 
d="M584 0h-555v127l391 465h-385v117h544v-127l-388 -465h393v-117zM118 913l140 -148h63l136 148l-62 56l-105 -115l-107 118z" />
    <glyph glyph-name="zcaron" unicode="&#x17e;" horiz-adv-x="507" 
d="M468 0h-424v110l275 307h-273v103h420v-113l-272 -304h274v-103zM98 706l126 -134h57l122 134l-56 50l-94 -103l-96 106z" />
    <glyph glyph-name="florin" unicode="&#x192;" horiz-adv-x="532" 
d="M499 608q-28 6 -43 6q-42 0 -63 -16t-31 -56q-6 -27 -17 -91h130v-112h-155l-62 -310q-15 -71 -59.5 -111t-115.5 -40q-43 0 -83 12v106q27 -6 55 -6q40 0 58 18t26 58l55 273h-94v112h117l24 119q14 70 61.5 112.5t118.5 42.5q26 0 78 -8v-109z" />
    <glyph glyph-name="circumflex" unicode="&#x2c6;" horiz-adv-x="365" 
d="M349 629l-61 -55l-103 113l-105 -116l-64 58l138 145h61z" />
    <glyph glyph-name="caron" unicode="&#x2c7;" horiz-adv-x="358" 
d="M348 924l-140 -148h-63l-136 148l62 56l105 -115l107 118z" />
    <glyph glyph-name="breve" unicode="&#x2d8;" horiz-adv-x="350" 
d="M346 767q-6 -81 -49 -128t-120 -47t-119.5 47t-48.5 128h94q5 -44 22.5 -64t51.5 -20t52 20t23 64h94z" />
    <glyph glyph-name="dotaccent" unicode="&#x2d9;" horiz-adv-x="265" 
d="M201 592h-133v128h133v-128z" />
    <glyph glyph-name="ring" unicode="&#x2da;" horiz-adv-x="248" 
d="M248 710q0 -51 -35.5 -86.5t-86.5 -35.5t-86.5 35.5t-35.5 86.5t35.5 86t86.5 35t86.5 -35t35.5 -86zM179 710q0 22 -15.5 37t-37.5 15t-37 -15t-15 -37t15 -37.5t37 -15.5t37.5 15.5t15.5 37.5z" />
    <glyph glyph-name="ogonek" unicode="&#x2db;" horiz-adv-x="198" 
d="M194 -185l-110 -52l-80 210h102z" />
    <glyph glyph-name="tilde" unicode="&#x2dc;" horiz-adv-x="382" 
d="M369 672q-58 -60 -115 -60q-30 0 -68 20.5t-53 20.5q-34 0 -63 -33l-51 64q60 60 115 60q29 0 67 -21t54 -21q29 0 63 34z" />
    <glyph glyph-name="hungarumlaut" unicode="&#x2dd;" horiz-adv-x="510" 
d="M504 725l-202 -117l-42 65l185 144zM249 725l-202 -117l-42 65l185 144z" />
    <glyph glyph-name="pi" unicode="&#x3c0;" horiz-adv-x="636" 
d="M581 1q-48 -8 -67 -8q-143 0 -143 145v266h-121v-406h-124v406h-76v101h520v-101h-75v-248q0 -26 10.5 -38t36.5 -12q6 0 21 1t18 1v-107z" />
    <glyph glyph-name="endash" unicode="&#x2013;" horiz-adv-x="659" 
d="M599 252h-539v112h539v-112z" />
    <glyph glyph-name="emdash" unicode="&#x2014;" horiz-adv-x="1149" 
d="M1089 252h-1029v111h1029v-111z" />
    <glyph glyph-name="quoteleft" unicode="&#x2018;" horiz-adv-x="267" 
d="M205 414h-144v135q0 65 23 105.5t82 65.5l32 -58q-38 -18 -51 -40.5t-13 -61.5h71v-146z" />
    <glyph glyph-name="quoteright" unicode="&#x2019;" horiz-adv-x="247" 
d="M196 573q0 -65 -23 -105.5t-82 -65.5l-33 58q38 18 51.5 40.5t13.5 61.5h-72v147h145v-136z" />
    <glyph glyph-name="quotesinglbase" unicode="&#x201a;" horiz-adv-x="287" 
d="M217 11q0 -66 -23 -107.5t-84 -66.5l-33 59q38 18 52 41t14 63h-73v150h147v-139z" />
    <glyph glyph-name="quotedblleft" unicode="&#x201c;" horiz-adv-x="483" 
d="M419 413h-144v135q0 64 23.5 105t82.5 66l32 -58q-38 -18 -51.5 -40.5t-13.5 -61.5h71v-146zM207 413h-143v135q0 65 22.5 105.5t81.5 65.5l32 -58q-38 -18 -51.5 -40.5t-13.5 -61.5h72v-146z" />
    <glyph glyph-name="quotedblright" unicode="&#x201d;" horiz-adv-x="463" 
d="M409 574q0 -65 -22.5 -105.5t-81.5 -65.5l-32 58q38 18 51.5 40.5t13.5 61.5h-72v146h143v-135zM198 574q0 -64 -23.5 -105t-82.5 -66l-32 58q38 18 51.5 40.5t13.5 61.5h-71v146h144v-135z" />
    <glyph glyph-name="quotedblbase" unicode="&#x201e;" horiz-adv-x="504" 
d="M434 11q0 -66 -23 -107.5t-84 -66.5l-33 59q38 18 52 41t14 63h-73v150h147v-139zM217 11q0 -66 -23 -107.5t-84 -66.5l-33 59q38 18 52 41t14 63h-73v150h147v-139z" />
    <glyph glyph-name="dagger" unicode="&#x2020;" horiz-adv-x="562" 
d="M522 415h-184v-540h-114v540h-184v105h184v189h114v-189h184v-105z" />
    <glyph glyph-name="daggerdbl" unicode="&#x2021;" horiz-adv-x="562" 
d="M522 64h-184v-189h-114v189h-184v105h184v246h-184v105h184v189h114v-189h184v-105h-184v-246h184v-105z" />
    <glyph glyph-name="bullet" unicode="&#x2022;" horiz-adv-x="432" 
d="M357 292q0 -58 -41.5 -99.5t-99.5 -41.5t-99.5 41.5t-41.5 99.5t41.5 99.5t99.5 41.5t99.5 -41.5t41.5 -99.5z" />
    <glyph glyph-name="ellipsis" unicode="&#x2026;" horiz-adv-x="999" 
d="M907 0h-145v146h145v-146zM572 0h-145v146h145v-146zM237 0h-145v146h145v-146z" />
    <glyph glyph-name="perthousand" unicode="&#x2030;" horiz-adv-x="1165" 
d="M1147 172q0 -71 -30 -114q-47 -69 -134 -69q-86 0 -134 69q-29 42 -29 114t29 114q49 68 134 68q87 0 134 -68q30 -43 30 -114zM782 172q0 -71 -30 -114q-47 -69 -134 -69q-86 0 -134 69q-29 42 -29 114t29 114q49 68 134 68q87 0 134 -68q30 -43 30 -114zM702 670
l-507 -690l-74 56l505 687zM372 537q0 -71 -30 -114q-48 -69 -134 -69q-85 0 -134 69q-29 42 -29 114t29 114q49 68 134 68q87 0 134 -68q30 -43 30 -114zM1053 172q0 100 -70 100q-69 0 -69 -100q0 -47 14.5 -74t54.5 -27q70 0 70 101zM688 172q0 46 -14.5 73t-55.5 27
q-69 0 -69 -100q0 -47 14.5 -74t54.5 -27q41 0 55.5 27t14.5 74zM278 537q0 101 -70 101q-69 0 -69 -101q0 -47 14.5 -74t54.5 -27q41 0 55.5 27t14.5 74z" />
    <glyph glyph-name="guilsinglleft" unicode="&#x2039;" horiz-adv-x="336" 
d="M286 105l-73 -51l-173 244l173 247l73 -52l-114 -194z" />
    <glyph glyph-name="guilsinglright" unicode="&#x203a;" horiz-adv-x="336" 
d="M296 298l-173 -244l-73 51l114 194l-114 194l73 52z" />
    <glyph glyph-name="fraction" unicode="&#x2044;" horiz-adv-x="587" 
d="M584 670l-507 -690l-74 56l505 687z" />
    <glyph glyph-name="Euro" unicode="&#x20ac;" horiz-adv-x="621" 
d="M606 54q-89 -67 -200 -67q-126 0 -208 82q-67 67 -85 169h-78v73h70q-1 12 -1 37q0 6 0.5 17t0.5 17h-70v73h77q19 105 86 172q82 82 208 82q111 0 200 -67l-47 -101q-72 55 -153 55q-76 0 -123 -50q-33 -35 -44 -91h281l-35 -73h-254v-35v-36h234l-35 -73h-191
q11 -52 44 -88q47 -50 123 -50q85 0 153 55z" />
    <glyph glyph-name="recordright" unicode="&#x2117;" horiz-adv-x="838" 
d="M788 354q0 -161 -104 -264t-265 -103t-265 103t-104 264q0 159 105 263.5t264 104.5t264 -104.5t105 -263.5zM695 354q0 122 -77 202t-199 80t-198.5 -79.5t-76.5 -202.5t76 -202t199 -79q121 0 198.5 79.5t77.5 201.5zM590 408q0 -70 -40 -106t-111 -36h-51v-104h-100
v386h151q66 0 108.5 -37.5t42.5 -102.5zM493 408q0 25 -14.5 38.5t-39.5 13.5h-52v-106h52q54 0 54 54z" />
    <glyph glyph-name="trademark" unicode="&#x2122;" horiz-adv-x="857" 
d="M797 328h-95v256l-78 -246h-73l-78 245v-255h-95v381h135l77 -241l76 241h131v-381zM326 624h-110v-296h-96v296h-110v85h316v-85z" />
    <glyph glyph-name="arrowleft" unicode="&#x2190;" horiz-adv-x="797" 
d="M752 275h-540l204 -204l-70 -70l-321 323l321 323l70 -69l-204 -205h540v-98z" />
    <glyph glyph-name="arrowright" unicode="&#x2192;" horiz-adv-x="797" 
d="M772 323l-321 -323l-70 70l204 204h-540v98h540l-204 205l70 69z" />
    <glyph glyph-name="arrowupleft" unicode="&#x2196;" horiz-adv-x="630" 
d="M590 232l-69 -70l-382 382v-288h-99v453h457v-96h-289z" />
    <glyph glyph-name="arrowupright" unicode="&#x2197;" horiz-adv-x="650" 
d="M585 256h-99v288l-382 -382l-69 70l382 381h-289v96h457v-453z" />
    <glyph glyph-name="product" unicode="&#x220f;" horiz-adv-x="932" 
d="M172 897l-107 -107v28l79 79h28zM372 897l-307 -307v27l280 280h27zM773 897l-708 -708v27l681 681h27zM572 897l-507 -508v28l480 480h27zM867 790l-802 -801v27l802 802v-28zM867 590l-802 -802v28l802 801v-27zM867 -212l-82 -81h-27l109 109v-28zM867 389l-683 -682
h-27l710 710v-28zM867 -11l-282 -282h-27l309 309v-27zM867 189l-482 -482h-28l510 509v-27z" />
    <glyph glyph-name="minus" unicode="&#x2212;" horiz-adv-x="659" 
d="M599 252h-539v112h539v-112z" />
    <glyph glyph-name="radical" unicode="&#x221a;" horiz-adv-x="697" 
d="M707 728h-113l-254 -736h-106l-189 528h133l109 -321l211 633h209v-104z" />
    <glyph glyph-name="infinity" unicode="&#x221e;" horiz-adv-x="782" 
d="M742 303q0 -71 -49.5 -120.5t-127.5 -49.5q-46 0 -83 22t-89 68q-46 -47 -86 -69t-87 -22q-78 0 -129 50t-51 121t51 121.5t129 50.5q83 0 172 -91q47 47 86 69t87 22q78 0 127.5 -50.5t49.5 -121.5zM635 302q0 30 -21.5 49.5t-51.5 19.5q-41 0 -106 -69q64 -68 106 -68
q31 0 52 19t21 49zM327 302q-65 69 -105 69q-31 0 -53 -20t-22 -49q0 -30 22 -49t53 -19q41 0 105 68z" />
    <glyph glyph-name="approxequal" unicode="&#x2248;" horiz-adv-x="640" 
d="M580 377q-30 -32 -49 -49t-51 -32.5t-66 -15.5q-42 0 -104 30l-45 20q-23 10 -40 10q-18 0 -37 -10t-29.5 -19.5t-27.5 -27.5l-71 84q30 32 49 49t51 32.5t66 15.5q38 0 102 -29q36 -16 45 -19q25 -9 41 -9q18 0 36.5 9t29 18.5t27.5 27.5zM580 157q-29 -31 -49 -48.5
t-51.5 -32.5t-65.5 -15q-44 0 -104 29q-8 3 -23 10.5t-22 10.5q-21 9 -40 9q-40 0 -94 -56l-71 84q29 31 49 48.5t51.5 32.5t65.5 15q40 0 102 -28q3 -2 20 -9.5t25 -10.5q25 -9 41 -9q18 0 36.5 9t29 18.5t27.5 27.5z" />
    <glyph glyph-name="notequal" unicode="&#x2260;" horiz-adv-x="690" 
d="M600 129h-339l-101 -131l-58 44l67 87h-79v99h155l77 100h-232v98h308l97 126l57 -45l-62 -81h110v-98h-186l-77 -100h263v-99z" />
    <glyph glyph-name="blank" unicode="&#x2423;" horiz-adv-x="953" 
d="M895 -99h-837v248h84v-162h670v162h83v-248z" />
    <glyph glyph-name="ampersand.alt" unicode="&#xe026;" horiz-adv-x="719" 
d="M663 0h-350q-100 0 -165 51t-65 148q0 49 29.5 98t73.5 67q-42 25 -66 65.5t-24 88.5q0 93 65 142.5t161 49.5q59 0 99 -10v-108q-50 10 -91 10q-46 0 -78 -23t-32 -67q0 -47 29.5 -70.5t77.5 -23.5h116v104h117v-104h103v-106h-103v-206h103v-106zM443 106v206h-121
q-52 0 -84 -28t-32 -78q0 -49 30.5 -74.5t80.5 -25.5h126z" />
    <glyph glyph-name="zero.alt" unicode="&#xe030;" 
d="M530 348q0 -102 -17 -177t-66 -122q-64 -62 -162 -62t-162 62q-49 47 -66 122t-17 177t17 177t66 122q64 62 162 62t162 -62q49 -47 66 -122t17 -177zM385 536q-30 63 -100 63q-25 0 -45 -8t-32.5 -22t-22 -32.5t-13 -39.5t-6.5 -43.5t-2.5 -44.5t0.5 -42v-19v-19.5
v-25.5v-23zM406 348v21.5v27.5v25l-222 -260q29 -65 101 -65q25 0 45 8t32.5 22t22 32.5t13 39.5t6.5 43.5t2.5 44.5t-0.5 42v19z" />
    <glyph glyph-name="one.alt" unicode="&#xe031;" 
d="M239 109v438l-153 -111v136l171 123h107v-586h139v-109h-403v109h139z" />
    <glyph glyph-name="apple" unicode="&#xf8ff;" horiz-adv-x="588" 
d="M539 364q0 -41 -26.5 -67.5t-66.5 -26.5h-72q17 -23 17 -54q0 -40 -26.5 -66.5t-66.5 -26.5h-249v248q0 41 26.5 67.5t66.5 26.5q30 0 55 -17v71q0 41 26.5 67.5t66.5 26.5t66.5 -26.5t26.5 -67.5v-62h63q40 0 66.5 -26.5t26.5 -66.5zM522 364q0 34 -21 55t-55 21h-79v79
q0 34 -21.5 55.5t-55.5 21.5t-55 -21.5t-21 -55.5v-232h232q34 0 55 21.5t21 55.5z" />
    </font>
</defs>
</svg>
